<svg width="99" height="100" viewBox="0 0 99 100" fill="none" xmlns="http://www.w3.org/2000/svg">
<g id="Frame" clip-path="url(#clip0_2229_45778)">
<g id="Group">
<g id="Capa 1">
<path id="Vector" d="M98.3653 55.8421C101.921 28.7943 82.8776 3.9849 55.8298 0.428784C28.782 -3.12733 3.97256 15.9165 0.416448 42.9643C-3.13966 70.0121 15.9041 94.8215 42.952 98.3776C69.9998 101.934 94.8092 82.8899 98.3653 55.8421Z" fill="#FBB040"/>
<g id="Clip path group">
<mask id="mask0_2229_45778" style="mask-type:luminance" maskUnits="userSpaceOnUse" x="-1" y="0" width="100" height="99">
<g id="clippath">
<path id="Vector_2" d="M98.3653 55.8421C101.921 28.7943 82.8776 3.9849 55.8298 0.428784C28.782 -3.12733 3.97256 15.9165 0.416448 42.9643C-3.13966 70.0121 15.9041 94.8215 42.952 98.3776C69.9998 101.934 94.8092 82.8899 98.3653 55.8421Z" fill="white"/>
</g>
</mask>
<g mask="url(#mask0_2229_45778)">
<g id="Group_2">
<g id="Group_3">
<path id="Vector_3" d="M60.5248 64.6025H41.6084V77.3456H60.5248V64.6025Z" fill="#FBBCA0"/>
<g id="Vector_4" style="mix-blend-mode:multiply">
<path d="M46.2052 73.8248C49.0558 74.9575 52.1803 75.6372 55.248 75.6655C57.0037 75.6844 58.7972 75.4578 60.534 75.1558V64.6121H41.6177V71.2007C42.9486 72.3712 44.6383 73.2018 46.2052 73.8248Z" fill="#E6E7E8"/>
</g>
<g id="Group_4">
<path id="Vector_5" d="M71.55 40.6174C71.6161 40.1455 72.409 39.3809 72.7583 39.126C73.5323 38.5502 74.3158 39.1449 74.5423 39.8906C74.7405 40.5608 74.7594 41.3159 74.816 42.005C74.9293 43.6946 74.6744 45.356 73.9193 46.8851C73.4096 47.9046 72.6167 48.7447 71.6727 49.3771C71.6727 49.3771 70.6533 49.8868 70.4551 48.7164L71.5595 40.6174H71.55Z" fill="#FBBCA0"/>
<path id="Vector_6" d="M71.3896 41.6368C71.4368 41.2969 72.0031 40.7589 72.258 40.5701C72.8149 40.1642 73.3718 40.5796 73.5323 41.1176C73.6739 41.599 73.6928 42.137 73.7211 42.6279C73.806 43.8361 73.6267 45.0255 73.0792 46.1204C72.7111 46.8473 72.1447 47.4514 71.4651 47.9045C71.4651 47.9045 70.7383 48.2631 70.5967 47.4325L71.3896 41.6368Z" fill="#DDA78F"/>
</g>
<g id="Group_5">
<path id="Vector_7" d="M30.1112 40.6174C30.0451 40.1455 29.2522 39.3809 28.903 39.126C28.1289 38.5502 27.3455 39.1449 27.1189 39.8906C26.9207 40.5608 26.9018 41.3159 26.8452 42.005C26.7225 43.6946 26.9868 45.356 27.7419 46.8851C28.2516 47.9046 29.0445 48.7447 29.9885 49.3771C29.9885 49.3771 31.0079 49.8868 31.2061 48.7164L30.1017 40.6174H30.1112Z" fill="#FBBCA0"/>
<path id="Vector_8" d="M30.2715 41.6368C30.2243 41.2969 29.6579 40.7589 29.4031 40.5701C28.8462 40.1642 28.2892 40.5796 28.1288 41.1176C27.9872 41.599 27.9683 42.137 27.94 42.6279C27.855 43.8361 28.0344 45.0255 28.5819 46.1204C28.95 46.8473 29.5164 47.4514 30.196 47.9045C30.196 47.9045 30.9228 48.2631 31.0644 47.4325L30.2715 41.6368Z" fill="#DDA78F"/>
</g>
<path id="Vector_9" d="M72.1727 42.1465C72.1727 47.4891 71.2476 52.8884 68.7368 57.5042C66.5374 61.5442 63.2337 64.7819 59.6845 67.3683C56.8055 69.4638 53.7189 71.9086 50.0847 71.6065C46.2901 71.295 43.3356 68.0574 40.5605 65.5371C36.662 61.9879 33.5848 57.5797 31.6875 52.3881C30.517 49.1882 29.979 45.5824 29.979 42.137C29.979 24.8725 39.4277 14.0173 51.0758 14.0173C62.724 14.0173 72.1727 24.8725 72.1727 42.137V42.1465Z" fill="#FBBCA0"/>
<path id="Vector_10" d="M84.1042 83.1131L60.5248 76.9492H41.6085L18.0291 83.1131C18.0291 83.1131 7.10781 87.1626 5.89014 99.9717H96.2432C95.0255 87.1626 84.1042 83.1131 84.1042 83.1131Z" fill="#FBBCA0"/>
<path id="Vector_11" d="M84.1042 83.1131L60.5248 76.9492H41.6085L18.0291 83.1131C18.0291 83.1131 7.10781 87.1626 5.89014 99.9717H96.2432C95.0255 87.1626 84.1042 83.1131 84.1042 83.1131Z" fill="white"/>
<path id="Vector_12" d="M35.6523 22.2768C35.6523 22.2768 42.7318 32.8016 60.5343 34.0193C60.5343 34.0193 59.0429 33.3491 57.2872 28.7616C57.2872 28.7616 63.0924 33.755 70.4456 36.9927L72.1353 40.4191C72.1353 40.4191 72.1258 38.6729 73.7399 38.9749C73.7399 38.9749 75.0898 25.2596 69.4262 18.5105C69.4262 18.5105 72.1353 18.6426 73.8815 20.1341C73.8815 20.1341 71.314 14.7348 62.5449 11.7708C62.5449 11.7708 64.7065 10.0151 68.6144 11.2328C68.6144 11.2328 63.4417 8.80689 54.7669 9.21278C54.7669 9.21278 37.7573 8.53316 35.6523 22.2957V22.2768Z" fill="#3C2415"/>
<path id="Vector_13" d="M38.4086 24.7781L30.0171 40.3341C30.0171 40.3341 29.2714 39.4374 28.9127 39.1259C28.9127 39.1259 28.4785 17.7553 40.3154 13.7058L38.4181 24.7687L38.4086 24.7781Z" fill="#3C2415"/>
<path id="Vector_14" d="M84.1041 83.1131L66.6602 78.5539L51.0759 99.9811L35.6521 78.5161L18.0384 83.1225C18.0384 83.1225 7.11708 87.172 5.89941 99.9811H96.2524C95.0348 87.172 84.1135 83.1225 84.1135 83.1225L84.1041 83.1131Z" fill="#414042"/>
<path id="Vector_15" d="M48.9993 89.2393L44.6572 99.9718H57.0038L52.7656 89.2393H48.9993Z" fill="#BD1E2D"/>
<g id="Group_6">
<path id="Vector_16" d="M50.7832 77.157L45.2612 84.5763L49.103 89.2676L50.9814 89.2393L52.8693 89.2015L56.5506 84.3875L50.7832 77.157Z" fill="#BE1E2D"/>
<g id="Vector_17" style="mix-blend-mode:multiply">
<path d="M54.4836 83.6041C53.7756 85.0011 52.4636 86.5963 50.6701 86.1999C48.82 85.794 47.9799 84.0477 48.4047 82.2731C48.82 80.5457 49.9339 79.1015 50.5568 77.4685L45.252 84.5763L49.0938 89.2676L52.86 89.211L56.5508 84.397L54.9933 82.443C54.8423 82.8395 54.6724 83.2359 54.4836 83.6135V83.6041Z" fill="#D1D3D4"/>
</g>
</g>
<path id="Vector_18" d="M51.0763 99.9718L35.6524 78.5068L23.3247 81.7256L39.0789 92.8168L35.0294 94.6009L42.3166 99.9718H51.0763Z" fill="#363436"/>
<path id="Vector_19" d="M51.0762 100L66.4906 78.5352L78.8183 81.754L63.0641 92.8451L67.1135 94.6386L59.8264 100H51.0762Z" fill="#363436"/>
<path id="Vector_20" d="M32.3296 77.3929L41.5801 73.0603L51.01 76.9965L60.4304 73.0603L70.3134 77.3929L56.3432 86.7473L51.01 79.1015L45.2614 86.7473L32.3296 77.3929Z" fill="#E2E3E4"/>
</g>
</g>
</g>
</g>
</g>
</g>
</g>
<defs>
<clipPath id="clip0_2229_45778">
<rect width="98.8012" height="100" fill="white"/>
</clipPath>
</defs>
</svg>
