<svg width="44" height="44" viewBox="0 0 44 44" fill="none" xmlns="http://www.w3.org/2000/svg">
<g clip-path="url(#clip0_2553_7289)">
<path d="M43.7128 25.3661C45.668 13.4583 37.5316 2.23138 25.5396 0.289951C13.5477 -1.65148 2.24138 6.4278 0.28622 18.3355C-1.66894 30.2433 6.46747 41.4702 18.4594 43.4117C30.4513 45.3531 41.7577 37.2738 43.7128 25.3661Z" fill="#14BAAB"/>
<mask id="mask0_2553_7289" style="mask-type:luminance" maskUnits="userSpaceOnUse" x="-1" y="0" width="46" height="44">
<path d="M43.7128 25.3661C45.668 13.4583 37.5316 2.23138 25.5396 0.289951C13.5477 -1.65148 2.24138 6.4278 0.28622 18.3355C-1.66894 30.2433 6.46747 41.4702 18.4594 43.4117C30.4513 45.3531 41.7577 37.2738 43.7128 25.3661Z" fill="white"/>
</mask>
<g mask="url(#mask0_2553_7289)">
<path d="M11.9307 20.0087C11.8088 20.1882 11.4304 35.3795 14.1168 38.4896H29.3356C29.3356 38.4896 33.4934 26.8258 30.6599 20.0087H11.8424" fill="#0C0000"/>
<path d="M26.4562 28.3579H18.0312V33.9936H26.4562V28.3579Z" fill="#FBBCA0"/>
<g style="mix-blend-mode:multiply">
<path d="M20.0744 32.4364C21.3441 32.9374 22.7356 33.238 24.102 33.2505C24.8839 33.2547 25.6827 33.1586 26.4562 33.0251V28.3621H18.0312V31.2759C18.624 31.7936 19.3808 32.1651 20.0744 32.4364Z" fill="#E6E7E8"/>
</g>
<path d="M31.3627 17.7545C31.3921 17.5457 31.7452 17.2076 31.9008 17.0949C32.2455 16.8402 32.5945 17.1032 32.6954 17.433C32.7837 17.7294 32.7921 18.0634 32.8173 18.3681C32.8719 19.1154 32.7542 19.8501 32.4179 20.5264C32.1909 20.9772 31.8377 21.3488 31.4173 21.6285C31.4173 21.6285 30.9633 21.8539 30.875 21.3362L31.3669 17.7545H31.3627Z" fill="#FBBCA0"/>
<path d="M31.291 18.2011C31.312 18.0509 31.5643 17.8129 31.6778 17.7294C31.9258 17.5457 32.1739 17.7336 32.2496 17.9715C32.3126 18.1844 32.321 18.4224 32.3378 18.6395C32.3757 19.1738 32.2916 19.6998 32.052 20.1841C31.888 20.5055 31.6358 20.7727 31.3331 20.9731C31.3331 20.9731 31.0094 21.1317 30.9463 20.7643L31.2994 18.2011H31.291Z" fill="#DDA78F"/>
<path d="M12.9104 17.7545C12.881 17.5457 12.5278 17.2076 12.3723 17.0949C12.0275 16.8402 11.6786 17.1032 11.5777 17.433C11.4852 17.7294 11.4768 18.0634 11.4558 18.3681C11.4053 19.1154 11.5188 19.8501 11.8552 20.5264C12.0822 20.9772 12.4353 21.3488 12.8557 21.6285C12.8557 21.6285 13.3098 21.8539 13.3981 21.3362L12.9062 17.7545H12.9104Z" fill="#FBBCA0"/>
<path d="M12.982 18.2011C12.9609 18.0509 12.7087 17.8129 12.5952 17.7294C12.3471 17.5457 12.0991 17.7336 12.0276 17.9715C11.9646 18.1844 11.9562 18.4224 11.9393 18.6395C11.9015 19.1738 11.9856 19.6998 12.2252 20.1841C12.3892 20.5055 12.6414 20.7727 12.9441 20.9731C12.9441 20.9731 13.2678 21.1317 13.3351 20.7643L12.982 18.2011Z" fill="#DDA78F"/>
<path d="M31.6399 18.4266C31.6399 20.7894 31.2279 23.1772 30.1096 25.2186C29.1301 27.0053 27.6587 28.4372 26.0779 29.581C24.7957 30.5078 23.4209 31.589 21.8024 31.4554C20.1123 31.3177 18.7964 29.8858 17.5604 28.7712C15.8242 27.2015 14.4536 25.252 13.6086 22.956C13.0873 21.5408 12.8477 19.9461 12.8477 18.4224C12.8477 10.7871 17.0559 5.98634 22.2438 5.98634C27.4316 5.98634 31.6399 10.7871 31.6399 18.4224V18.4266Z" fill="#FBBCA0"/>
<path d="M35.0619 36.5442L25.9138 33.8182H18.5735L9.42538 36.5442C9.42538 36.5442 5.18765 38.3351 4.7168 44H39.7747C39.3038 38.3351 35.0619 36.5442 35.0619 36.5442Z" fill="#FBBCA0"/>
<path d="M35.0619 36.5442L30.0044 35.0372L22.2436 42.7351L14.4619 35.0414L9.42538 36.54C9.42538 36.54 5.18765 38.3309 4.7168 43.9958H39.7747C39.3038 38.3309 35.0619 36.54 35.0619 36.54V36.5442Z" fill="#EC524F"/>
<path d="M15.8662 9.02126C15.8662 9.02126 20.3898 16.1473 31.6105 17.3621C31.6105 17.3621 33.7336 9.24251 25.8425 5.29754C25.8425 5.29754 19.8054 2.82202 15.8662 9.02544V9.02126Z" fill="#3C2415"/>
<path d="M17.0264 10.4615C17.0264 10.4615 14.1046 12.3401 12.835 17.5791C12.835 17.5791 11.477 7.70628 18.5063 6.47478L17.0222 10.4657L17.0264 10.4615Z" fill="#3C2415"/>
<path d="M28.495 16.5397C28.495 16.5397 31.5051 35.559 26.7461 40.9442C26.7461 40.9442 32.8294 40.0467 33.1321 31.7309C33.1321 31.7309 34.2168 14.7446 30.101 8.8835L28.495 16.5397Z" fill="#3C2415"/>
<path d="M15.6225 40.9442C15.6225 40.9442 8.61848 40.1177 10.5439 18.7313C10.5439 18.7313 11.0274 6.85048 18.0314 6.57913L17.6278 11.0877C17.6278 11.0877 13.6003 12.2774 14.1216 21.6786C14.1216 21.6786 13.7138 36.8197 15.6225 40.9484V40.9442Z" fill="#3C2415"/>
</g>
</g>
<defs>
<clipPath id="clip0_2553_7289">
<rect width="44" height="44" fill="white"/>
</clipPath>
</defs>
</svg>
